<svg width="145" height="40" viewBox="0 0 145 40" fill="none" xmlns="http://www.w3.org/2000/svg">
<g clip-path="url(#clip0_476_202)">
<path d="M27.5307 0.970788C26.409 0.32753 25.1572 0 23.8062 0H7.39315C6.04218 0 4.79656 0.32753 3.69348 0.970788C2.59349 1.61405 1.69491 2.46976 1.01942 3.51726C0.34394 4.56772 0 5.75391 0 7.04042V22.2219C0 23.5084 0.34394 24.6946 1.01942 25.7451C1.69181 26.7926 2.59349 27.6483 3.69348 28.2915C4.79656 28.9348 6.04218 29.2623 7.39315 29.2623H23.8093C25.1944 29.2623 26.4586 28.9348 27.5616 28.2915C28.6616 27.6512 29.5509 26.7926 30.2109 25.7451C30.8678 24.6946 31.2025 23.5084 31.2025 22.2219V7.04042C31.2025 5.75391 30.8678 4.57067 30.2109 3.52021C29.554 2.46976 28.6523 1.61405 27.5369 0.973739L27.5307 0.970788ZM24.0169 7.29124V21.974C24.0169 22.1009 23.9704 22.2071 23.8775 22.2957C23.7845 22.3842 23.673 22.4284 23.5428 22.4284H7.65343C7.52019 22.4284 7.40865 22.3842 7.31569 22.2957C7.22273 22.2071 7.17625 22.1039 7.17625 21.977V7.28829C7.17625 7.1614 7.22273 7.05813 7.31569 6.96666C7.40865 6.87814 7.5171 6.83387 7.65033 6.83387H23.5397C23.673 6.83387 23.7814 6.87814 23.8744 6.96371C23.9673 7.05223 24.0138 7.15845 24.0138 7.28534L24.0169 7.29124Z" fill="white"/>
<path d="M64.766 0.970788C63.6443 0.32753 62.3925 0 61.0415 0H37.2353V25.8424C37.2353 27.7279 38.8466 29.2623 40.8266 29.2623C42.8065 29.2623 44.4178 27.7279 44.4178 25.8424V7.28829C44.4178 7.1614 44.4643 7.05518 44.5572 6.96666C44.6502 6.87814 44.7586 6.83387 44.8919 6.83387H60.7813C60.9145 6.83387 61.0229 6.87814 61.1159 6.96371C61.2089 7.05223 61.2553 7.15845 61.2553 7.28534V25.8395C61.2553 27.725 62.8666 29.2594 64.8466 29.2594C66.8265 29.2594 68.4378 27.725 68.4378 25.8395V7.04042C68.4378 5.75391 68.1031 4.57067 67.4463 3.52021C66.7894 2.47271 65.8877 1.61405 64.7722 0.973739L64.766 0.970788Z" fill="white"/>
<path d="M102.813 0.100317C100.833 0.100317 99.222 1.63469 99.222 3.52021V21.974C99.222 22.1009 99.1755 22.2071 99.0825 22.2957C98.9896 22.3842 98.878 22.4284 98.7479 22.4284H82.8585C82.7252 22.4284 82.6137 22.3842 82.5207 22.2957C82.4278 22.2071 82.3813 22.1039 82.3813 21.977V3.51725C82.3813 1.63174 80.7701 0.0973663 78.7901 0.0973663C76.8101 0.0973663 75.1989 1.63174 75.1989 3.51725V22.2189C75.1989 23.5055 75.5428 24.6916 76.2183 25.7421C76.8938 26.7896 77.8016 27.6483 78.9202 28.2886C80.0419 28.9318 81.2751 29.2594 82.592 29.2594H97.118C97.558 29.2594 97.967 29.4276 98.2707 29.7315C98.5744 30.0354 98.7293 30.4337 98.7076 30.8527C98.6642 31.6583 97.967 32.2898 97.118 32.2898H87.559C83.5495 32.2898 80.2867 35.3969 80.2867 39.2151V39.997H99.0577C100.409 39.997 101.661 39.6784 102.782 39.0528C103.904 38.4273 104.796 37.5686 105.435 36.5004C106.076 35.4352 106.398 34.2402 106.398 32.9566V3.51725C106.398 1.63174 104.787 0.0973663 102.807 0.0973663L102.813 0.100317Z" fill="white"/>
<path d="M134.239 14.3848C134.239 14.3464 134.245 14.3051 134.251 14.2667L134.264 14.1841L121.866 0.504574C121.581 0.185896 121.166 0 120.726 0H114.932C114.107 0 113.435 0.640307 113.435 1.4252C113.435 1.76453 113.562 2.09206 113.791 2.34878L123.914 13.6648C124.286 14.0808 124.292 14.6916 123.93 15.1136L113.773 26.9194C113.553 27.1732 113.435 27.4948 113.435 27.8371C113.435 28.622 114.107 29.2623 114.932 29.2623H120.397C120.85 29.2623 121.274 29.0705 121.556 28.7371L134.236 14.4408V14.3877L134.239 14.3848Z" fill="#0298FE"/>
<path d="M144.644 2.34878C144.873 2.09206 145 1.76453 145 1.4252C145 0.640307 144.328 0 143.503 0H138.019C137.579 0 137.164 0.182945 136.879 0.504574L130.415 7.7663L135.082 13.0422L144.647 2.35173L144.644 2.34878Z" fill="white"/>
<path d="M135.041 15.7332L130.356 21.0829L136.931 28.74C137.216 29.0735 137.638 29.2623 138.09 29.2623H143.507C144.331 29.2623 145.003 28.622 145.003 27.8224C145.003 27.4948 144.882 27.1732 144.665 26.9194L135.044 15.7332H135.041Z" fill="white"/>
</g>
<defs>
<clipPath id="clip0_476_202">
<rect width="145" height="40" fill="white"/>
</clipPath>
</defs>
</svg>
